<svg xmlns="http://www.w3.org/2000/svg" viewBox="0 0 49 42.35"><defs><style>.cls-1{fill:none;stroke:#ec5f5c;stroke-linecap:round;stroke-linejoin:round;stroke-width:2px;}</style></defs><title>ico_szybka-przesylka</title><g id="Warstwa_2" data-name="Warstwa 2"><g id="Layer_2" data-name="Layer 2"><circle class="cls-1" cx="40.26" cy="37.48" r="3.87"/><circle class="cls-1" cx="15.05" cy="37.48" r="3.87"/><path class="cls-1" d="M39.53,14,33.2,14v23.6h3.19c0-3,1.73-3.87,3.87-3.87s3.87.91,3.87,3.87H47a1,1,0,0,0,1-1V24.34a1,1,0,0,0-.22-.63L40.29,14.4A1,1,0,0,0,39.53,14Z"/><path class="cls-1" d="M4.6,7V36.56a1,1,0,0,0,1,1h5.59c0-3,1.74-3.81,3.86-3.81s3.84.85,3.87,3.81H33.2V7a1,1,0,0,0-1-1H5.6A1,1,0,0,0,4.6,7Z"/><line class="cls-1" x1="9" y1="10" x2="24" y2="10"/><line class="cls-1" x1="2" y1="1" x2="19" y2="1"/><line class="cls-1" x1="2" y1="14" x2="16" y2="14"/><line class="cls-1" x1="9" y1="18" x2="12" y2="18"/><line class="cls-1" x1="1" y1="22" x2="11" y2="22"/></g></g></svg>