<svg xmlns="http://www.w3.org/2000/svg" viewBox="0 0 33.22 33.22"><defs><style>.cls-1{fill:#25cc36;}</style></defs><title>ico_whatsapp-zielony</title><g id="Warstwa_2" data-name="Warstwa 2"><g id="Layer_1" data-name="Layer 1"><path class="cls-1" d="M25.41,20.21c-.1-.17-.37-.27-.78-.48s-2.42-1.18-2.79-1.31-.65-.21-.92.2-1.06,1.32-1.3,1.59-.48.3-.88.1a11.08,11.08,0,0,1-3.29-2,11.84,11.84,0,0,1-2.27-2.8c-.24-.41,0-.63.18-.83s.41-.47.61-.71a2.87,2.87,0,0,0,.41-.67.74.74,0,0,0,0-.71c-.1-.2-.92-2.2-1.26-3s-1.43-.71-1.7-.71a1.9,1.9,0,0,0-1.09.51,4.32,4.32,0,0,0-1.43,3.38,7.76,7.76,0,0,0,1.67,4.18c.2.27,3.05,4.45,7.19,6.11,3.88,1.57,4.75,1.43,5.54,1.16a3.73,3.73,0,0,0,1.91-2.07,3.37,3.37,0,0,0,.24-1.92Z"/><path class="cls-1" d="M16.61,0A16.61,16.61,0,0,0,0,16.61a16.41,16.41,0,0,0,2.13,8.1L0,33.22,8.51,31.1A16.61,16.61,0,1,0,16.61,0Zm0,31a14.3,14.3,0,0,1-7.8-2.32h0l-2.87.63h0l-2.61.58,1.3-5.17h0l0-.12a14.39,14.39,0,1,1,12,6.4Z"/></g></g></svg>