<svg xmlns="http://www.w3.org/2000/svg" viewBox="0 0 374.47 52.86"><defs><style>.cls-1{fill:#f65f5a;}.cls-2{fill:#333a41;}</style></defs><title>woreczki-logo</title><g id="Warstwa_2" data-name="Warstwa 2"><g id="Warstwa_1-2" data-name="Warstwa 1"><path class="cls-1" d="M258.73,40.55c29.1-14.81,34.08-19.66,34.6-26,.51-5-2.79-7.89-9.06-7.89A13.19,13.19,0,0,0,271.4,15l-6.79-1.68C268,4.53,275.22,0,285,0c11.32,0,17.21,6.14,16,14.81s-8.35,14.87-30.91,25.93l25-.19-1.49,6.79H257.5Z"/><path class="cls-1" d="M324.27,37.18H298.15l1.16-6.08L331.39.52h8.15l-6.41,30.39h6.41l-1.36,6.27h-6.4l-2.2,10.16h-7.5Zm1.36-6.27,4.66-21.66L307.4,30.91Z"/><path class="cls-2" d="M0,18.28H10.74l5.59,17.56,5.35-17.56h7.43L34.5,35.84l5.55-17.56H50.84L39.59,47.34H30.13L25.39,31.1,20.61,47.34H11.14Z"/><path class="cls-2" d="M51.35,32.78c0-10.48,7.63-15.11,15.42-15.11S82.08,22.3,82.08,32.78,74.55,48,66.71,48,51.35,43.37,51.35,32.78Zm20.91-.05c0-4.48-2.34-7-5.55-7s-5.54,2.54-5.54,7,2.39,7.13,5.54,7.13S72.26,37.31,72.26,32.73Z"/><path class="cls-2" d="M87.13,18.23H97V22.1c.86-2.29,3.92-4.89,9.41-4.33L105.5,27c-5.09-.92-8.5.87-8.5,7.33v13H87.13Z"/><path class="cls-2" d="M108.39,32.78c0-9,6.15-15.11,15.16-15.11,9.92,0,15.62,6.66,14.55,17.2H118.26c0,3.76,2.29,6.05,5.8,6.05,2.49,0,4.22-1,4.88-3l9.06.87c-1.83,6-6.71,9.11-14.25,9.11C114.44,47.9,108.39,41.94,108.39,32.78Zm20.76-3.61a5.38,5.38,0,0,0-10.74,0Z"/><path class="cls-2" d="M141.86,32.78c0-9,6.36-15.11,14.86-15.11,8.35,0,13.49,3.71,14.55,11.24l-8.8,1.17c-.76-2.79-2.59-4.32-5.19-4.32-3.36,0-5.55,2.75-5.55,7s2.19,7,5.55,7c2.49,0,4.43-1.62,5.14-4.32l8.85,1.17c-1,7.33-6.36,11.25-14.55,11.25C148.22,47.9,141.86,41.79,141.86,32.78Z"/><path class="cls-2" d="M175,39.5,188.28,26H175.1V18.23h25.19V26L186.91,39.5h13.33v7.84H175Z"/><path class="cls-2" d="M224.57,47.34,215.92,33.8V47.34H206V8.76h9.92V31.05L224,18.23h11.4l-9.77,13.94L236,47.34Z"/><path class="cls-2" d="M238.48,10.14c0-3.16,2.29-4.84,5.5-4.84,3,0,5.55,1.68,5.55,4.84s-2.6,4.78-5.55,4.78C240.77,14.92,238.48,13.29,238.48,10.14Zm.51,8.09h9.87V47.34H239Z"/><path class="cls-2" d="M338.81,45.05c0-1.79,1.3-2.72,3.15-2.72,1.65,0,3.13.93,3.13,2.72s-1.48,2.72-3.13,2.72C340.11,47.77,338.81,46.87,338.81,45.05Z"/><path class="cls-2" d="M348.35,31H354v2.2a5,5,0,0,1,4.66-2.49c3.7,0,7.08,2.61,7.08,8.54s-3.38,8.53-7.08,8.53a4.92,4.92,0,0,1-4.66-2.6v7.72h-5.61Zm11.71,8.25c0-2.55-1.3-4-3.12-4s-3.18,1.44-3.18,4,1.35,4,3.15,4S360.06,41.78,360.06,39.21Z"/><path class="cls-2" d="M368.83,25.58h5.64V47.51h-5.64Z"/></g></g></svg>